Coordinates
version=1
nRows=5
nColumns=40
inDegrees=yes

Units are S.I. units (second, meters, Newtons, ...)
If the header above contains a line with 'inDegrees', this indicates whether rotational values are in degrees (yes) or radians (no).

endheader
time	pelvis_tilt	pelvis_list	pelvis_rotation	pelvis_tx	pelvis_ty	pelvis_tz	hip_flexion_r	hip_adduction_r	hip_rotation_r	knee_angle_r	knee_angle_r_beta	ankle_angle_r	subtalar_angle_r	mtp_angle_r	hip_flexion_l	hip_adduction_l	hip_rotation_l	knee_angle_l	knee_angle_l_beta	ankle_angle_l	subtalar_angle_l	mtp_angle_l	lumbar_extension	lumbar_bending	lumbar_rotation	arm_flex_r	arm_add_r	arm_rot_r	elbow_flex_r	pro_sup_r	wrist_flex_r	wrist_dev_r	arm_flex_l	arm_add_l	arm_rot_l	elbow_flex_l	pro_sup_l	wrist_flex_l	wrist_dev_l
      3.97500000	      5.37043412	     -5.02251709	     -6.65835071	     -0.28971062	      0.93813834	     -1.01059812	      0.46352538	     -5.90546006	     -2.61493896	     81.47118325	      1.42194039	    -19.49238289	      0.00000000	      0.00000000	     22.97475375	     -6.92506214	    -14.38896081	     62.26359128	      1.08670467	     19.90680056	      0.00000000	      0.00000000	    -13.82483280	      1.25146344	     10.45848965	     89.78714268	    -17.94322242	     43.75345216	     33.76814452	     85.27771466	      0.00000000	      0.00000000	     89.82700228	    -21.69695587	     51.63190424	     43.77944471	     86.29600254	      0.00000000	      0.00000000
      3.98000000	      5.38818515	     -5.09927138	     -6.63097169	     -0.28985179	      0.93742814	     -1.01066961	      0.44920755	     -5.82577857	     -2.65170124	     81.52548450	      1.42288813	    -19.50542635	      0.00000000	      0.00000000	     23.08154900	     -6.97031125	    -14.26193270	     62.47470658	      1.09038933	     19.95660807	      0.00000000	      0.00000000	    -13.86646568	      1.31554991	     10.56368266	     89.79298177	    -18.13427496	     43.99843184	     33.85427990	     84.88571998	      0.00000000	      0.00000000	     89.82822439	    -21.42903966	     51.50162603	     43.49445308	     86.18833387	      0.00000000	      0.00000000
      3.98500000	      5.34077452	     -5.03577288	     -6.62601399	     -0.29006421	      0.93659899	     -1.01077741	      0.55324017	     -5.91760094	     -2.68165279	     81.66264786	      1.42528208	    -19.49505040	      0.00000000	      0.00000000	     23.23346646	     -6.86068944	    -14.19156454	     62.60943422	      1.09274077	     20.11453343	      0.00000000	      0.00000000	    -13.84899691	      1.27054799	     10.48028427	     89.79228716	    -17.97365997	     43.62254143	     33.79343642	     85.25824071	      0.00000000	      0.00000000	     89.83043518	    -21.56882971	     51.57021254	     43.66736447	     86.25674201	      0.00000000	      0.00000000
      3.99000000	      5.30320869	     -4.99998683	     -6.63351763	     -0.29031583	      0.93587098	     -1.01087192	      0.65823754	     -5.97103068	     -2.68706635	     81.77593059	      1.42725924	    -19.57510593	      0.00000000	      0.00000000	     23.39039765	     -6.78755360	    -14.11303180	     62.77827997	      1.09568768	     20.21656700	      0.00000000	      0.00000000	    -13.84523777	      1.24497609	     10.50070420	     89.79420230	    -17.93672276	     43.47505799	     33.73259891	     85.25811668	      0.00000000	      0.00000000	     89.83125733	    -21.56149474	     51.59046744	     43.67884318	     86.26502216	      0.00000000	      0.00000000
      3.99500000	      5.26091784	     -4.97561416	     -6.64555644	     -0.29033383	      0.93512017	     -1.01092636	      0.72890710	     -6.00241975	     -2.67829671	     81.86023434	      1.42873062	    -19.58428810	      0.00000000	      0.00000000	     23.50797800	     -6.73470125	    -14.05770209	     62.90085694	      1.09782706	     20.26953343	      0.00000000	      0.00000000	    -13.81385482	      1.22757625	     10.53921883	     89.79616362	    -17.94658342	     43.34913315	     33.70914557	     85.32867855	      0.00000000	      0.00000000	     89.83120869	    -21.49582150	     51.60639072	     43.60733818	     86.22289432	      0.00000000	      0.00000000
